<?xml version="1.0" encoding="iso-8859-1"?>
<!-- Generator: Adobe Illustrator 16.0.0, SVG Export Plug-In . SVG Version: 6.00 Build 0)  -->
<!DOCTYPE svg PUBLIC "-//W3C//DTD SVG 1.1//EN" "http://www.w3.org/Graphics/SVG/1.1/DTD/svg11.dtd" [
	<!ENTITY ns_flows "http://ns.adobe.com/Flows/1.0/">
	<!ENTITY ns_extend "http://ns.adobe.com/Extensibility/1.0/">
	<!ENTITY ns_ai "http://ns.adobe.com/AdobeIllustrator/10.0/">
	<!ENTITY ns_graphs "http://ns.adobe.com/Graphs/1.0/">
	<!ENTITY ns_vars "http://ns.adobe.com/Variables/1.0/">
	<!ENTITY ns_imrep "http://ns.adobe.com/ImageReplacement/1.0/">
	<!ENTITY ns_sfw "http://ns.adobe.com/SaveForWeb/1.0/">
	<!ENTITY ns_custom "http://ns.adobe.com/GenericCustomNamespace/1.0/">
	<!ENTITY ns_adobe_xpath "http://ns.adobe.com/XPath/1.0/">
]>
<svg version="1.1"
	 xmlns:x="&ns_extend;" xmlns:i="&ns_ai;" xmlns:graph="&ns_graphs;" i:viewOrigin="3071.1816 1.953125e-03" i:rulerOrigin="-3071.1816 840.5322" i:pageBounds="3071.1816 1.953125e-03 3893.0898 -840.5322"
	 xmlns="http://www.w3.org/2000/svg" xmlns:xlink="http://www.w3.org/1999/xlink" xmlns:a="http://ns.adobe.com/AdobeSVGViewerExtensions/3.0/"
	 x="0px" y="0px" width="821.9px" height="840.5px" viewBox="0 0 821.9 840.5" enable-background="new 0 0 821.9 840.5"
	 xml:space="preserve">
<metadata>
	<variableSets  xmlns="&ns_vars;">
		<variableSet  locked="none" varSetName="binding1">
			<variables></variables>
			<v:sampleDataSets  xmlns:v="&ns_vars;" xmlns="&ns_custom;"></v:sampleDataSets>
		</variableSet>
	</variableSets>
</metadata>
<g id="baum" i:layer="yes" i:dimmedPercent="50" i:rgbTrio="#800080008000">
	<path i:knockout="Off" fill="#ECEBD4" d="M399.1,521.9c0,0-42.7,19.7-57.8,12.1c-15.1-7.5-14-19.4-28-19.4c-14,0-85.2,27-87.3-37.7
		c-2.2-64.7-47.4-34.5-50.7-77.6c-3.2-43.1,18.3-35.6,23.7-50.7s-22.2-55.2,38.8-104.6c15.5-12.5,9.7-7.5,9.7-7.5s14-48.5,59.3-50.7
		c45.3-2.2,67.9-29.1,67.9-29.1s42-22.6,60.4-7.5s30.2,18.3,30.2,18.3s36.7-22.6,53.9-1.1c17.2,21.6,16.2,60.4,16.2,60.4
		s44.2,4.3,48.5,39.9c4.3,35.6-19.4,73.2-19.4,73.2s31.3,68,10.8,81c-20.5,12.9-33.4,16.2-33.4,16.2s25.9,48.5-22.6,62.5
		c-48.5,14-60.4,14-60.4,14s2.2,20.7-17.2,22.2C422.2,537.2,399.1,521.9,399.1,521.9z"/>
	<path i:knockout="Off" fill="#432821" d="M346.7,675.2c-2.2,18.3,55,0,55,0l-7.5-90.6l7.5-95.9c0,0,18.9-13.5,30.2-22.6
		s47.4-15.1,47.4-15.1s-34-8.6-34.5-5.4s11.8-14.1,21.6-17.2c9.7-3.2,52.8-17.2,52.8-17.2s-28-1.6-33.4,0c-5.4,1.6,33.4-55,33.4-55
		L416.8,459.6l60.4-87.3l18.3-22.6l-16.2,8.6l3.2-51.7l-33.4,81.9l-3.2-35.6l14-46.4c0,0-12.9,13.5-16.2,19.4
		c-3.2,5.9-10.8-33.4-10.8-33.4s7.6,51.5,4.6,56.5c-3,5-20.8-4.7-20.8-4.7s15.1,19.4,16.2,29.1c1.1,9.7-9.7,53.4-12.9,57.1
		c-3.2,3.8-8.6-14-8.6-14s2.7,15.6,0,22.6c-2.7,7-34.5,33.4-34.5,33.4l5.4-33.4l33.4-60.4c0,0-26.4,30.7-31.3,39.9
		c-4.9,9.2-5.4-42-5.4-42l-12.9,91.6l-19.4-10.8l-16.2-142.3c0,0,5.4,39.9,0,44.2c-5.4,4.3-24.8-11.9-24.8-11.9l23.7,30.2l1.1,61.4
		l-24.8-34.5l-19.4-38.8c0,0-2.7,22.1,0,28c2.7,5.9-25.9-10.8-25.9-10.8l37.7,35.6l28,42c0,0-5.9,4.3-21.6,5.4
		c-15.6,1.1-57.1-19.4-57.1-19.4s41.3,32.1,37.7,37.2c-3.6,5.1-8.6,12.4-8.6,12.4s21.6-6.5,30.2-12.4c8.6-5.9,19.4-5.4,19.4-5.4
		s7.6,0.7,12.9,5.4c5.3,4.6-1.6-0.5,12.9,11.3C366.7,507.1,354.4,609.9,346.7,675.2z"/>
	<path i:knockout="Off" opacity="0.2" fill="#ECEBD4" d="M365.2,510.2c1,8.3-10.1,161.1-10.6,164.8s7.2,4.3,8.7,0
		s2.7-161.3,2.7-161.3S364.2,501.7,365.2,510.2z"/>
	<path i:knockout="Off" opacity="0.2" fill="#D5A983" d="M365.1,494.7c1.1,9.7-6,175.5-6.6,179.8s8.4,5.1,10.1,0
		s0.4-177.8,0.4-177.8S363.9,484.7,365.1,494.7z"/>
</g>
</svg>
