<?xml version="1.0" encoding="iso-8859-1"?>
<!-- Generator: Adobe Illustrator 16.0.0, SVG Export Plug-In . SVG Version: 6.00 Build 0)  -->
<!DOCTYPE svg PUBLIC "-//W3C//DTD SVG 1.1//EN" "http://www.w3.org/Graphics/SVG/1.1/DTD/svg11.dtd" [
	<!ENTITY ns_flows "http://ns.adobe.com/Flows/1.0/">
	<!ENTITY ns_extend "http://ns.adobe.com/Extensibility/1.0/">
	<!ENTITY ns_ai "http://ns.adobe.com/AdobeIllustrator/10.0/">
	<!ENTITY ns_graphs "http://ns.adobe.com/Graphs/1.0/">
	<!ENTITY ns_vars "http://ns.adobe.com/Variables/1.0/">
	<!ENTITY ns_imrep "http://ns.adobe.com/ImageReplacement/1.0/">
	<!ENTITY ns_sfw "http://ns.adobe.com/SaveForWeb/1.0/">
	<!ENTITY ns_custom "http://ns.adobe.com/GenericCustomNamespace/1.0/">
	<!ENTITY ns_adobe_xpath "http://ns.adobe.com/XPath/1.0/">
]>
<svg version="1.1"
	 xmlns:x="&ns_extend;" xmlns:i="&ns_ai;" xmlns:graph="&ns_graphs;" i:viewOrigin="-1418.3525 -165.2808" i:rulerOrigin="-1418.3525 -165.2808" i:pageBounds="-1418.3525 -165.2808 -596.4497 -840.5322"
	 xmlns="http://www.w3.org/2000/svg" xmlns:xlink="http://www.w3.org/1999/xlink" xmlns:a="http://ns.adobe.com/AdobeSVGViewerExtensions/3.0/"
	 x="0px" y="0px" width="821.9px" height="675.3px" viewBox="0 0 821.9 675.3" enable-background="new 0 0 821.9 675.3"
	 xml:space="preserve">
<metadata>
	<variableSets  xmlns="&ns_vars;">
		<variableSet  locked="none" varSetName="binding1">
			<variables></variables>
			<v:sampleDataSets  xmlns:v="&ns_vars;" xmlns="&ns_custom;"></v:sampleDataSets>
		</variableSet>
	</variableSets>
</metadata>
<g id="Ebene_2" i:layer="yes" i:dimmedPercent="50" i:rgbTrio="#FFFF4F004F00">
	<polygon i:knockout="Off" fill="#F2D6B0" points="195.9,36.1 582.4,36.1 530.5,639.8 245.9,639.8 	"/>
	<polygon i:knockout="Off" opacity="0.2" fill="#FBF7F5" points="204.6,67.8 484.3,67.8 442.5,640.3 247.8,640.3 	"/>
	<polygon i:knockout="Off" opacity="0.2" fill="#FBF7F5" points="239.2,99.5 311.7,99.5 332.4,528.3 261.3,528.3 	"/>
	<polygon i:knockout="Off" fill="#D5A983" points="201.7,186 576.6,186 553.5,464.8 224.8,464.8 	"/>
	<g>
		<path i:knockout="Off" fill="#432821" d="M378.7,325.9c28.3-12.5,13.3-2.5,28.3-12.5c10.5-7,12.4-26.4,12.7-32.2
			c-0.4-0.3-0.6-0.6-1-0.9c-16.8-10.6-43.2,0.9-58.9,25.7c-13.9,22-14.7,47.1-3,59.9C357.3,353.1,361,333.8,378.7,325.9z"/>
		<path i:knockout="Off" fill="#432821" d="M420.3,281.7c1.3,6.5,4.1,26.5-7.3,35.2c-15.4,11.7-33.4,15-40.7,23.8
			c-7.2,8.6-12.3,17.8-12.5,27.7c0.7,0.6,1.3,1.3,2.1,1.8c16.8,10.7,43.2-0.9,58.9-25.7C435.9,320.6,435.4,293.2,420.3,281.7z"/>
	</g>
</g>
</svg>
