<?xml version="1.0" encoding="iso-8859-1"?>
<!-- Generator: Adobe Illustrator 16.0.0, SVG Export Plug-In . SVG Version: 6.00 Build 0)  -->
<!DOCTYPE svg PUBLIC "-//W3C//DTD SVG 1.1//EN" "http://www.w3.org/Graphics/SVG/1.1/DTD/svg11.dtd" [
	<!ENTITY ns_flows "http://ns.adobe.com/Flows/1.0/">
	<!ENTITY ns_extend "http://ns.adobe.com/Extensibility/1.0/">
	<!ENTITY ns_ai "http://ns.adobe.com/AdobeIllustrator/10.0/">
	<!ENTITY ns_graphs "http://ns.adobe.com/Graphs/1.0/">
	<!ENTITY ns_vars "http://ns.adobe.com/Variables/1.0/">
	<!ENTITY ns_imrep "http://ns.adobe.com/ImageReplacement/1.0/">
	<!ENTITY ns_sfw "http://ns.adobe.com/SaveForWeb/1.0/">
	<!ENTITY ns_custom "http://ns.adobe.com/GenericCustomNamespace/1.0/">
	<!ENTITY ns_adobe_xpath "http://ns.adobe.com/XPath/1.0/">
]>
<svg version="1.1"
	 xmlns:x="&ns_extend;" xmlns:i="&ns_ai;" xmlns:graph="&ns_graphs;" i:viewOrigin="-524.2627 0" i:rulerOrigin="524.2627 840.5303" i:pageBounds="-524.2627 0 297.6401 -840.5303"
	 xmlns="http://www.w3.org/2000/svg" xmlns:xlink="http://www.w3.org/1999/xlink" xmlns:a="http://ns.adobe.com/AdobeSVGViewerExtensions/3.0/"
	 x="0px" y="0px" width="821.9px" height="840.5px" viewBox="0 0 821.9 840.5" enable-background="new 0 0 821.9 840.5"
	 xml:space="preserve">
<metadata>
	<variableSets  xmlns="&ns_vars;">
		<variableSet  locked="none" varSetName="binding1">
			<variables></variables>
			<v:sampleDataSets  xmlns:v="&ns_vars;" xmlns="&ns_custom;"></v:sampleDataSets>
		</variableSet>
	</variableSets>
</metadata>
<g id="Ebene_2" i:layer="yes" i:dimmedPercent="50" i:rgbTrio="#FFFF4F004F00">
	<g>
		<polygon i:knockout="Off" fill="#F2D6B0" points="195.9,165.3 582.4,165.3 530.5,769 245.9,769 		"/>
		<polygon i:knockout="Off" fill="#432821" points="183.4,170.1 191.1,115.3 210.4,115.3 210.4,89.3 242.1,89.3 260.3,71.1 
			316.1,71.1 316.1,85.5 562.2,89.3 562.2,115.3 588.1,116.2 594.9,170.1 		"/>
		<g>
			<polygon i:knockout="Off" opacity="0.2" fill="#FBF7F5" points="204.6,197 484.3,197 442.5,769.5 247.8,769.5 			"/>
			<polygon i:knockout="Off" opacity="0.2" fill="#FBF7F5" points="239.2,228.7 311.7,228.7 332.4,657.5 261.3,657.5 			"/>
			<polygon i:knockout="Off" opacity="0.1" fill="#D5A983" points="272,88.4 372.8,88.4 372.8,112.4 361.3,112.4 351.3,147.6 
				351.7,169.1 230.5,169.1 230.5,148 243.2,142.2 245,113.4 260.8,113 			"/>
			<polygon i:knockout="Off" fill="#D5A983" points="201.7,315.2 576.6,315.2 553.5,594 224.8,594 			"/>
		</g>
		<g>
			<path i:knockout="Off" fill="#432821" d="M378.7,455.1c28.3-12.5,13.3-2.5,28.3-12.5c10.5-7,12.4-26.4,12.7-32.2
				c-0.4-0.3-0.6-0.6-1-0.9c-16.8-10.6-43.2,0.9-58.9,25.7c-13.9,22-14.7,47.1-3,59.9C357.3,482.3,361,463,378.7,455.1z"/>
			<path i:knockout="Off" fill="#432821" d="M420.3,410.9c1.3,6.5,4.1,26.5-7.3,35.2c-15.4,11.7-33.4,15-40.7,23.8
				c-7.2,8.6-12.3,17.8-12.5,27.7c0.7,0.6,1.3,1.3,2.1,1.8c16.8,10.7,43.2-0.9,58.9-25.7C435.9,449.8,435.4,422.4,420.3,410.9z"/>
		</g>
	</g>
</g>
</svg>
