<?xml version="1.0" encoding="utf-8"?>
<!-- Generator: Adobe Illustrator 16.0.0, SVG Export Plug-In . SVG Version: 6.00 Build 0)  -->
<!DOCTYPE svg PUBLIC "-//W3C//DTD SVG 1.1//EN" "http://www.w3.org/Graphics/SVG/1.1/DTD/svg11.dtd">
<svg version="1.1" id="Ebene_1" xmlns="http://www.w3.org/2000/svg" xmlns:xlink="http://www.w3.org/1999/xlink" x="0px" y="0px"
	 width="708.66px" height="850.39px" viewBox="0 0 708.66 850.39" enable-background="new 0 0 708.66 850.39" xml:space="preserve">
<polyline fill="#FFFFFF" points="175,163.39 156,179.39 156,196.39 166.5,231.39 "/>
<polyline fill="#FFFFFF" points="235,171.39 248,179.89 248,159.39 255,145.39 266,145.39 266,150.39 "/>
<polygon fill="#FDF9F4" stroke="#432821" stroke-width="0.7" stroke-miterlimit="10" points="160.424,236.076 154.757,252.743 
	152.667,269.707 134.337,266.059 129.67,284.059 155.082,299.52 129.67,324.059 138.082,337.52 100.337,344.726 79.67,349.393 
	92.082,376.187 96.082,396.187 83.003,415.391 72.749,433.391 84.082,442.855 77.003,450.724 80.336,462.724 88.336,486.057 
	101.415,497.519 87.003,508.724 80.336,524.724 83.669,543.39 96.749,552.187 105.415,557.519 105.415,557.519 96.082,579.519 
	95.415,592.853 106.749,595.519 106.749,595.519 116.749,623.519 128.749,623.519 129.415,618.853 140.082,630.853 140.082,630.853 
	160.749,628.853 160.749,628.853 178.336,638.724 178.336,638.724 217.415,647.519 190.749,679.519 179.669,708.723 
	169.003,734.724 170.749,740.187 165.002,780.057 175.415,791.519 206.082,791.519 232.749,791.519 244.082,781.519 
	263.415,782.853 283.415,781.519 301.002,787.39 319.415,791.519 334.749,797.519 350.336,821.519 367.082,812.724 372.749,796.187 
	380.749,791.519 394.336,798.723 406.749,810.187 423.415,803.519 464.081,788.853 464.081,788.853 490.749,786.187 
	494.083,774.187 510.749,783.519 524.083,776.853 531.669,792.057 546.749,798.853 549.415,772.187 544.083,756.187 
	544.083,756.187 526.083,732.187 562.083,711.519 572.083,697.519 577.415,682.187 590.749,689.519 597.415,671.519 
	590.749,650.853 569.415,632.853 536.083,600.187 498.749,564.853 505.415,547.519 483.415,527.519 479.702,514.984 
	490.749,524.187 521.415,492.853 529.415,498.187 536.083,488.187 546.749,486.853 564.749,475.519 564.749,475.519 
	588.083,462.853 588.083,462.853 622.083,441.519 611.415,434.853 626.749,428.186 635.669,450.722 648.083,449.519 
	661.415,401.519 654.749,381.519 637.415,372.186 641.415,364.186 630.083,345.519 638.083,322.186 634.083,302.186 
	622.083,285.519 626.083,270.186 594.083,247.519 594.749,231.52 608.083,215.519 596.083,152.185 581.669,145.39 594.083,137.519 
	566.749,110.185 542.749,116.185 546.749,96.185 562.749,96.185 556.083,69.519 533.003,54.721 507.417,87.519 488.749,82.852 
	473.417,103.519 440.083,116.185 391.417,136.185 385.417,126.852 392.083,124.852 403.417,113.519 404.749,93.519 416.083,93.519 
	400.749,78.185 394.749,88.185 377.417,98.185 344.75,84.185 339.417,79.519 334.083,52.185 328.75,52.185 314.75,43.519 
	294.083,50.185 290.75,43.519 254.337,39.392 275.417,78.852 256.083,98.852 242.133,134.722 228.082,170.852 212.337,162.64 
	174.082,163.52 155.082,179.52 152.667,200.725 "/>
</svg>
