<?xml version="1.0" encoding="iso-8859-1"?>
<!-- Generator: Adobe Illustrator 16.0.0, SVG Export Plug-In . SVG Version: 6.00 Build 0)  -->
<!DOCTYPE svg PUBLIC "-//W3C//DTD SVG 1.1//EN" "http://www.w3.org/Graphics/SVG/1.1/DTD/svg11.dtd" [
	<!ENTITY ns_flows "http://ns.adobe.com/Flows/1.0/">
	<!ENTITY ns_extend "http://ns.adobe.com/Extensibility/1.0/">
	<!ENTITY ns_ai "http://ns.adobe.com/AdobeIllustrator/10.0/">
	<!ENTITY ns_graphs "http://ns.adobe.com/Graphs/1.0/">
	<!ENTITY ns_vars "http://ns.adobe.com/Variables/1.0/">
	<!ENTITY ns_imrep "http://ns.adobe.com/ImageReplacement/1.0/">
	<!ENTITY ns_sfw "http://ns.adobe.com/SaveForWeb/1.0/">
	<!ENTITY ns_custom "http://ns.adobe.com/GenericCustomNamespace/1.0/">
	<!ENTITY ns_adobe_xpath "http://ns.adobe.com/XPath/1.0/">
]>
<svg version="1.1"
	 xmlns:x="&ns_extend;" xmlns:i="&ns_ai;" xmlns:graph="&ns_graphs;" i:viewOrigin="6017.0908 1.953125e-03" i:rulerOrigin="-6017.0908 840.5322" i:pageBounds="6017.0908 1.953125e-03 6839 -840.5322"
	 xmlns="http://www.w3.org/2000/svg" xmlns:xlink="http://www.w3.org/1999/xlink" xmlns:a="http://ns.adobe.com/AdobeSVGViewerExtensions/3.0/"
	 x="0px" y="0px" width="821.9px" height="840.5px" viewBox="0 0 821.9 840.5" enable-background="new 0 0 821.9 840.5"
	 xml:space="preserve">
<metadata>
	<variableSets  xmlns="&ns_vars;">
		<variableSet  locked="none" varSetName="binding1">
			<variables></variables>
			<v:sampleDataSets  xmlns:v="&ns_vars;" xmlns="&ns_custom;"></v:sampleDataSets>
		</variableSet>
	</variableSets>
</metadata>
<g id="Feuer" i:layer="yes" i:dimmedPercent="50" i:rgbTrio="#000055550000">
	<path i:knockout="Off" fill="#432821" d="M434.9,158.7c0,0-13,72.2,56.1,131.3c69.1,59.1,36.1,152.3-18,207.4
		c-54.1,55.1-76.2,84.2-82.2,104.2c-6,20-6,20-6,20s-1-84.2,33.1-124.3c34.1-40.1,47.1-81.2,5-161.3c-42.1-80.2-34.1-127.3-11-152.3
		C434.9,158.7,434.9,158.7,434.9,158.7z"/>
	<path i:knockout="Off" fill="#F2D6B0" d="M546.8,441.3c-5.3,36.9-16.6,48.1-84.2,104.2c-81.7,67.9-56.4,119.8-37.2,142.6
		c-4.5-17.5-6.2-41.3,11.6-57.9c26.8-25.1,47-31.9,53.4-33.6c1.7-0.8,2.2-0.5,2.2-0.5s-0.8,0.1-2.2,0.5c-4,2-14.5,10.5-41,46.1
		c-11.9,16-15.2,39-16,53.8c3.1,2.8,5.1,4.3,5.1,4.3l10,6c0,0-1.4-59.2,31.7-80.2c42.1-26.8,60-19.2,73.9-38
		C583.9,548.4,546.8,441.3,546.8,441.3z"/>
	<path i:knockout="Off" fill="#D5A983" d="M373.8,336.1c0,0,7,60.1-80.2,146.3c-47.3,46.7-0.2,112.6,45.9,158.3
		c-6.1-29.7-4.5-66.6-4.5-66.6s15.8,61,34.7,94.4c18.4,15.7,32.1,25.4,32.1,25.4s-26.1-43.1-34.8-106.2
		c-8.7-63.1,20.8-88.2,44.8-132.3C436,411.3,373.8,336.1,373.8,336.1z"/>
</g>
</svg>
