<?xml version="1.0" encoding="iso-8859-1"?>
<!-- Generator: Adobe Illustrator 16.0.0, SVG Export Plug-In . SVG Version: 6.00 Build 0)  -->
<!DOCTYPE svg PUBLIC "-//W3C//DTD SVG 1.1//EN" "http://www.w3.org/Graphics/SVG/1.1/DTD/svg11.dtd" [
	<!ENTITY ns_flows "http://ns.adobe.com/Flows/1.0/">
	<!ENTITY ns_extend "http://ns.adobe.com/Extensibility/1.0/">
	<!ENTITY ns_ai "http://ns.adobe.com/AdobeIllustrator/10.0/">
	<!ENTITY ns_graphs "http://ns.adobe.com/Graphs/1.0/">
	<!ENTITY ns_vars "http://ns.adobe.com/Variables/1.0/">
	<!ENTITY ns_imrep "http://ns.adobe.com/ImageReplacement/1.0/">
	<!ENTITY ns_sfw "http://ns.adobe.com/SaveForWeb/1.0/">
	<!ENTITY ns_custom "http://ns.adobe.com/GenericCustomNamespace/1.0/">
	<!ENTITY ns_adobe_xpath "http://ns.adobe.com/XPath/1.0/">
]>
<svg version="1.1"
	 xmlns:x="&ns_extend;" xmlns:i="&ns_ai;" xmlns:graph="&ns_graphs;" i:viewOrigin="6184.4053 -83.21" i:rulerOrigin="-6184.4053 796.7979" i:pageBounds="6184.4053 -83.21 6596.4053 -796.7979"
	 xmlns="http://www.w3.org/2000/svg" xmlns:xlink="http://www.w3.org/1999/xlink" xmlns:a="http://ns.adobe.com/AdobeSVGViewerExtensions/3.0/"
	 x="0px" y="0px" width="412px" height="713.6px" viewBox="0 0 412 713.6" enable-background="new 0 0 412 713.6"
	 xml:space="preserve">
<metadata>
	<variableSets  xmlns="http://ns.adobe.com/Variables/1.0/">
		<variableSet  locked="none" varSetName="binding1">
			<variables></variables>
			<v:sampleDataSets  xmlns:v="http://ns.adobe.com/Variables/1.0/" xmlns="http://ns.adobe.com/GenericCustomNamespace/1.0/">
				</v:sampleDataSets>
		</variableSet>
	</variableSets>
</metadata>
<g id="Feuer" i:knockout="Off" i:layer="yes" i:dimmedPercent="50" i:rgbTrio="#000055550000">
	<path fill="#432821" d="M228.7,9.5c0,0-16.6,92,71.5,167.2c88,75.3,46,194-22.9,264.2c-68.9,70.2-97.1,107.2-104.7,132.7
		c-7.6,25.5-7.6,25.5-7.6,25.5s-1.3-107.2,42.2-158.3c43.4-51.1,60-103.4,6.4-205.4c-53.6-102.1-43.4-162.1-14-194
		C228.7,9.5,228.7,9.5,228.7,9.5z"/>
	<path fill="#F2D6B0" d="M371.2,369.4c-6.8,47-21.1,61.3-107.2,132.7c-104.1,86.5-71.8,152.6-47.4,181.6
		c-5.7-22.3-7.9-52.6,14.8-73.7c34.1-32,59.9-40.6,68-42.8c2.2-1,2.8-0.6,2.8-0.6s-1,0.1-2.8,0.6c-5.1,2.5-18.5,13.4-52.2,58.7
		c-15.2,20.4-19.4,49.7-20.4,68.5c3.9,3.6,6.5,5.5,6.5,5.5l12.7,7.6c0,0-1.8-75.4,40.4-102.1c53.6-34.1,76.4-24.5,94.1-48.4
		C418.5,505.8,371.2,369.4,371.2,369.4z"/>
	<path fill="#D5A983" d="M150.9,235.4c0,0,8.9,76.5-102.1,186.3c-60.2,59.5-0.3,143.4,58.5,201.6c-7.8-37.8-5.7-84.8-5.7-84.8
		s20.1,77.7,44.2,120.2c23.4,20,40.9,32.4,40.9,32.4s-33.2-54.9-44.3-135.3s26.5-112.3,57.1-168.5
		C230.1,331.2,150.9,235.4,150.9,235.4z"/>
</g>
</svg>
