<?xml version="1.0" encoding="iso-8859-1"?>
<!-- Generator: Adobe Illustrator 16.0.0, SVG Export Plug-In . SVG Version: 6.00 Build 0)  -->
<!DOCTYPE svg PUBLIC "-//W3C//DTD SVG 1.1//EN" "http://www.w3.org/Graphics/SVG/1.1/DTD/svg11.dtd" [
	<!ENTITY ns_flows "http://ns.adobe.com/Flows/1.0/">
	<!ENTITY ns_extend "http://ns.adobe.com/Extensibility/1.0/">
	<!ENTITY ns_ai "http://ns.adobe.com/AdobeIllustrator/10.0/">
	<!ENTITY ns_graphs "http://ns.adobe.com/Graphs/1.0/">
	<!ENTITY ns_vars "http://ns.adobe.com/Variables/1.0/">
	<!ENTITY ns_imrep "http://ns.adobe.com/ImageReplacement/1.0/">
	<!ENTITY ns_sfw "http://ns.adobe.com/SaveForWeb/1.0/">
	<!ENTITY ns_custom "http://ns.adobe.com/GenericCustomNamespace/1.0/">
	<!ENTITY ns_adobe_xpath "http://ns.adobe.com/XPath/1.0/">
]>
<svg version="1.1"
	 xmlns:x="&ns_extend;" xmlns:i="&ns_ai;" xmlns:graph="&ns_graphs;" i:viewOrigin="2165.0908 1.953125e-03" i:rulerOrigin="-2165.0908 840.5322" i:pageBounds="2165.0908 1.953125e-03 2986.999 -840.5322"
	 xmlns="http://www.w3.org/2000/svg" xmlns:xlink="http://www.w3.org/1999/xlink" xmlns:a="http://ns.adobe.com/AdobeSVGViewerExtensions/3.0/"
	 x="0px" y="0px" width="821.9px" height="840.5px" viewBox="0 0 821.9 840.5" enable-background="new 0 0 821.9 840.5"
	 xml:space="preserve">
<metadata>
	<variableSets  xmlns="&ns_vars;">
		<variableSet  locked="none" varSetName="binding1">
			<variables></variables>
			<v:sampleDataSets  xmlns:v="&ns_vars;" xmlns="&ns_custom;"></v:sampleDataSets>
		</variableSet>
	</variableSets>
</metadata>
<g id="&#xD6;l" i:layer="yes" i:dimmedPercent="50" i:rgbTrio="#4F00FFFFFFFF">
	<path i:knockout="Off" fill="#432821" d="M426.8,211.7c0,0,103.9,72.4,114.1,172.3c12,117-70.6,140-114.3,140
		c-66.7,0-141.7-68-98.7-151.8C375.3,280,426.8,211.7,426.8,211.7z"/>
	<path i:knockout="Off" opacity="0.4" fill="#D5A983" d="M435.9,249.3c0,0,105.7,115,56.7,160c-22.5,20.7-46-25.3-36-44
		C473.8,333.3,435.9,249.3,435.9,249.3z"/>
	<path i:knockout="Off" opacity="0.4" fill="#F2D6B0" d="M435.2,250.7c0,0,68.7,89.3,58.7,110.7s-24,7.7-19.3-10
		C477.7,339.6,435.2,250.7,435.2,250.7z"/>
</g>
</svg>
