<?xml version="1.0" encoding="utf-8"?>
<!-- Generator: Adobe Illustrator 16.0.0, SVG Export Plug-In . SVG Version: 6.00 Build 0)  -->
<!DOCTYPE svg PUBLIC "-//W3C//DTD SVG 1.1//EN" "http://www.w3.org/Graphics/SVG/1.1/DTD/svg11.dtd">
<svg version="1.1" id="Ebene_1" xmlns="http://www.w3.org/2000/svg" xmlns:xlink="http://www.w3.org/1999/xlink" x="0px" y="0px"
	 width="534.213px" height="640.056px" viewBox="0 0 534.213 640.056" enable-background="new 0 0 534.213 640.056"
	 xml:space="preserve">
<path opacity="0.7" fill="#442922" stroke="#442922" stroke-miterlimit="10" d="M277.193,27.484c10.969,0,20.638,4.576,27.036,11.87
	c5.062,5.768,8.216,13.697,8.216,21.944c0,8.333-2.146,15.973-7.304,21.968c-6.4,7.444-17.068,11.847-27.949,11.847
	c-10.734,0-19.503-5.046-26.025-12.191c-5.417-5.934-9.015-14.646-9.015-23.119"/>
<path opacity="0.7" fill="#442922" stroke="#442922" stroke-miterlimit="10" d="M242.153,59.803
	c0-18.675,15.393-32.319,35.04-32.319"/>
<path opacity="0.9" fill="#FEFAF5" stroke="#F1D6B1" stroke-miterlimit="10" d="M278.658,30.417
	c17.518,0,31.719,13.581,31.719,30.335c0,16.755-14.201,30.336-31.719,30.336s-31.72-13.582-31.72-30.336
	C246.938,43.998,261.14,30.417,278.658,30.417"/>
<path opacity="0.5" fill="#442922" stroke="#F1D6B1" stroke-miterlimit="10" d="M306.937,62.455
	c-0.038,7.693-4.218,14.947-9.681,18.932c-2.85,2.078-8.007,5.016-14.444,5.4c-5.512,0.327-10.647-0.198-15.663-2.74
	c-1.398-0.708-2.317-0.985-4.333-2.66c-0.846-0.704-2.955-3.335-3.498-4.107c-1.084-1.54-2.062-4.713-3.832-6.614
	c-0.811-0.871-2.605-1.944-3.176-3.193c-0.52-1.138-1.129-2.407-1.352-4.448c-0.331-3.045-1.237-10.605,1.124-13.458
	c1.963-2.37,1.604-0.36,4.499-3.991c1.845-2.314,8.005-6.641,10.475-8.056c3.79-2.171,11.456-2.893,12.854-2.893
	c9.956,0,17.824,5.63,21.896,11.975C304.9,51.425,306.968,56.108,306.937,62.455z"/>
<path opacity="0.9" fill="#FEFAF5" stroke="#F1D6B1" stroke-miterlimit="10" d="M300.638,59.37c0,5.233-2.086,9.993-5.493,13.537
	c-3.725,3.872-9.028,5.493-14.913,5.493c-5.737,0-10.921-1.499-14.628-5.203c-3.576-3.572-5.778-9.253-5.778-14.629
	c0-5.204,1.327-9.417,4.7-12.954c3.728-3.908,9.791-6.076,15.706-6.076c6.417,0,12.142,2.879,15.882,7.38
	C298.943,50.322,300.638,54.653,300.638,59.37z"/>
<path opacity="0.7" fill="#442922" stroke="#442922" stroke-miterlimit="10" d="M256.163,57.55
	c-0.038,0.856,0.141,2.349-0.085,2.651c-0.342,0.457-0.194,0.668-0.999,1.002c-0.532,0.221-1.824,0.083-2.252-0.717
	c-0.32-0.598-0.256-2.257-0.256-3.173c0-1.037-0.169-2.689,0.141-3.384c0.333-0.741,1.363-0.741,1.882-0.741
	c0.435,0,1.027,0.258,1.34,0.797C256.349,54.696,256.229,56.072,256.163,57.55z"/>
<path opacity="0.7" fill="#442922" stroke="#442922" stroke-miterlimit="10" d="M352.121,95.357
	c-10.968,0-20.636-4.577-27.036-11.87c-5.061-5.769-8.217-13.697-8.217-21.945c0-8.332,2.149-15.972,7.304-21.967
	c6.399-7.442,17.067-11.847,27.949-11.847c10.733,0,19.504,5.046,26.027,12.191c5.416,5.933,9.013,14.646,9.013,23.118"/>
<path opacity="0.7" fill="#442922" stroke="#442922" stroke-miterlimit="10" d="M387.162,63.038
	c0,18.675-15.394,32.319-35.041,32.319"/>
<path opacity="0.9" fill="#FEFAF5" stroke="#F1D6B1" stroke-miterlimit="10" d="M350.657,92.426
	c-17.517,0-31.72-13.583-31.72-30.337s14.203-30.335,31.72-30.335c17.519,0,31.721,13.581,31.719,30.335
	C382.376,78.843,368.176,92.426,350.657,92.426"/>
<path opacity="0.5" fill="#442922" stroke="#F1D6B1" stroke-miterlimit="10" d="M322.379,60.386
	c0.039-7.694,4.218-14.947,9.679-18.932c2.849-2.078,8.008-5.016,14.446-5.4c5.512-0.328,10.646,0.197,15.663,2.74
	c1.398,0.707,2.317,0.985,4.335,2.66c0.844,0.703,2.954,3.334,3.495,4.106c1.085,1.54,2.062,4.714,3.833,6.614
	c0.811,0.871,2.604,1.944,3.174,3.194c0.521,1.136,1.13,2.406,1.354,4.447c0.329,3.045,1.237,10.605-1.126,13.458
	c-1.962,2.37-1.603,0.36-4.497,3.992c-1.846,2.313-8.006,6.64-10.477,8.055c-3.788,2.172-11.455,2.894-12.852,2.894
	c-9.956,0-17.827-5.63-21.898-11.977C324.416,71.415,322.347,66.732,322.379,60.386z"/>
<path opacity="0.9" fill="#FEFAF5" stroke="#F1D6B1" stroke-miterlimit="10" d="M328.678,63.471c0-5.233,2.084-9.992,5.492-13.536
	c3.726-3.874,9.029-5.494,14.913-5.494c5.737,0,10.921,1.5,14.628,5.203c3.575,3.572,5.776,9.253,5.776,14.629
	c0,5.204-1.327,9.416-4.701,12.954c-3.726,3.91-9.79,6.076-15.705,6.076c-6.417,0-12.141-2.879-15.882-7.38
	C330.372,72.519,328.678,68.188,328.678,63.471z"/>
<path opacity="0.7" fill="#442922" stroke="#442922" stroke-miterlimit="10" d="M373.152,65.291c0.038-0.854-0.14-2.349,0.086-2.65
	c0.342-0.456,0.192-0.667,0.998-1.002c0.531-0.222,1.824-0.084,2.253,0.717c0.32,0.598,0.256,2.256,0.256,3.173
	c0,1.036,0.169,2.689-0.142,3.384c-0.334,0.743-1.363,0.742-1.883,0.742c-0.435,0-1.026-0.26-1.34-0.799
	C372.965,68.144,373.085,66.769,373.152,65.291z"/>
<line fill="none" stroke="#432821" stroke-width="2" stroke-miterlimit="10" x1="277.193" y1="95.63" x2="277.193" y2="113.028"/>
<line fill="none" stroke="#432821" stroke-width="2" stroke-miterlimit="10" x1="277.193" y1="111.973" x2="352.121" y2="111.973"/>
<line fill="none" stroke="#432821" stroke-width="2" stroke-miterlimit="10" x1="314.608" y1="111.973" x2="357.415" y2="153.569"/>
<line fill="none" stroke="#432821" stroke-width="2" stroke-miterlimit="10" x1="352.016" y1="95.63" x2="352.016" y2="113.028"/>
<line fill="none" stroke="#432821" stroke-width="2" stroke-miterlimit="10" x1="357.415" y1="221.9" x2="357.415" y2="239.3"/>
<line fill="none" stroke="#432821" stroke-width="2" stroke-miterlimit="10" x1="357.415" y1="238.245" x2="432.345" y2="238.245"/>
<line fill="none" stroke="#432821" stroke-width="2" stroke-miterlimit="10" x1="394.832" y1="238.245" x2="394.832" y2="282.584"/>
<line fill="none" stroke="#432821" stroke-width="2" stroke-miterlimit="10" x1="432.239" y1="221.9" x2="432.239" y2="239.3"/>
<g>
	<path opacity="0.7" fill="#442922" stroke="#442922" stroke-miterlimit="10" d="M394.772,282.584
		c10.969,0,20.638,4.577,27.037,11.869c5.063,5.769,8.216,13.697,8.216,21.945c0,8.333-2.146,15.974-7.303,21.968
		c-6.4,7.443-17.068,11.846-27.95,11.846c-10.732,0-19.501-5.045-26.024-12.191c-5.417-5.933-9.014-14.646-9.014-23.118"/>
	<path opacity="0.7" fill="#442922" stroke="#442922" stroke-miterlimit="10" d="M359.734,314.903
		c0-18.674,15.392-32.319,35.038-32.319"/>
	<path opacity="0.9" fill="#FEFAF5" stroke="#F1D6B1" stroke-miterlimit="10" d="M396.237,285.517
		c17.52,0,31.722,13.583,31.722,30.336c0,16.755-14.202,30.335-31.722,30.335c-17.517,0-31.717-13.581-31.717-30.335
		C364.52,299.099,378.72,285.517,396.237,285.517"/>
	<path opacity="0.5" fill="#442922" stroke="#F1D6B1" stroke-miterlimit="10" d="M424.518,317.555
		c-0.038,7.694-4.219,14.948-9.682,18.932c-2.849,2.079-8.006,5.017-14.445,5.4c-5.511,0.328-10.646-0.196-15.662-2.74
		c-1.398-0.708-2.318-0.985-4.333-2.661c-0.847-0.703-2.954-3.333-3.498-4.106c-1.084-1.541-2.062-4.714-3.832-6.614
		c-0.811-0.871-2.604-1.945-3.176-3.194c-0.519-1.137-1.129-2.407-1.351-4.448c-0.331-3.045-1.237-10.606,1.124-13.457
		c1.962-2.371,1.603-0.361,4.498-3.991c1.845-2.314,8.005-6.641,10.476-8.056c3.79-2.17,11.455-2.893,12.854-2.893
		c9.955,0,17.824,5.629,21.896,11.974C422.481,306.526,424.547,311.209,424.518,317.555z"/>
	<path opacity="0.9" fill="#FEFAF5" stroke="#F1D6B1" stroke-miterlimit="10" d="M418.218,314.471c0,5.232-2.086,9.991-5.493,13.536
		c-3.724,3.874-9.027,5.493-14.913,5.493c-5.738,0-10.919-1.499-14.628-5.203c-3.574-3.573-5.777-9.253-5.777-14.629
		c0-5.204,1.328-9.416,4.698-12.953c3.728-3.909,9.792-6.076,15.708-6.076c6.417,0,12.142,2.878,15.882,7.381
		C416.523,305.422,418.218,309.754,418.218,314.471z"/>
	<path opacity="0.7" fill="#442922" stroke="#442922" stroke-miterlimit="10" d="M373.745,312.65c-0.04,0.855,0.14,2.35-0.087,2.652
		c-0.341,0.456-0.193,0.667-0.997,1.002c-0.533,0.221-1.826,0.083-2.253-0.718c-0.319-0.598-0.257-2.257-0.257-3.172
		c0-1.038-0.169-2.69,0.143-3.385c0.333-0.742,1.362-0.742,1.882-0.742c0.435,0,1.027,0.26,1.34,0.798
		C373.93,309.798,373.81,311.173,373.745,312.65z"/>
</g>
<path fill="none" stroke="#432821" stroke-width="2" stroke-miterlimit="10" d="M314.608,111.973"/>
<line fill="none" stroke="#432821" stroke-width="2" stroke-miterlimit="10" x1="314.608" y1="111.973" x2="265.633" y2="153.813"/>
<path opacity="0.7" fill="#442922" stroke="#442922" stroke-miterlimit="10" d="M187.966,152.873
	c10.969,0,20.637,4.576,27.035,11.868c5.062,5.77,8.216,13.697,8.216,21.945c0,8.332-2.147,15.972-7.304,21.967
	c-6.4,7.443-17.068,11.847-27.948,11.847c-10.734,0-19.504-5.046-26.025-12.191c-5.417-5.934-9.015-14.646-9.015-23.118"/>
<path opacity="0.7" fill="#442922" stroke="#442922" stroke-miterlimit="10" d="M152.926,185.191
	c0-18.675,15.394-32.318,35.04-32.318"/>
<path opacity="0.9" fill="#FEFAF5" stroke="#F1D6B1" stroke-miterlimit="10" d="M189.431,155.804
	c17.519,0,31.719,13.583,31.719,30.336c0,16.754-14.2,30.336-31.719,30.336c-17.52,0-31.72-13.582-31.72-30.336
	C157.711,169.387,171.911,155.804,189.431,155.804"/>
<path opacity="0.5" fill="#442922" stroke="#F1D6B1" stroke-miterlimit="10" d="M217.708,187.842
	c-0.037,7.694-4.217,14.948-9.681,18.932c-2.849,2.079-8.006,5.017-14.443,5.4c-5.513,0.328-10.647-0.197-15.664-2.74
	c-1.396-0.708-2.317-0.984-4.333-2.661c-0.846-0.703-2.953-3.334-3.497-4.105c-1.085-1.542-2.061-4.715-3.831-6.614
	c-0.812-0.871-2.607-1.945-3.178-3.193c-0.52-1.138-1.13-2.408-1.352-4.449c-0.332-3.046-1.237-10.606,1.124-13.458
	c1.962-2.37,1.604-0.36,4.498-3.991c1.846-2.312,8.006-6.641,10.476-8.056c3.79-2.171,11.455-2.893,12.854-2.893
	c9.956,0,17.825,5.63,21.895,11.974C215.671,176.813,217.74,181.497,217.708,187.842z"/>
<path opacity="0.9" fill="#FEFAF5" stroke="#F1D6B1" stroke-miterlimit="10" d="M211.41,184.758c0,5.234-2.085,9.993-5.493,13.537
	c-3.724,3.874-9.027,5.493-14.912,5.493c-5.737,0-10.922-1.498-14.629-5.203c-3.574-3.572-5.777-9.252-5.777-14.628
	c0-5.204,1.327-9.416,4.7-12.954c3.728-3.909,9.791-6.076,15.707-6.076c6.416,0,12.141,2.878,15.883,7.38
	C209.716,175.709,211.41,180.042,211.41,184.758z"/>
<path opacity="0.7" fill="#442922" stroke="#442922" stroke-miterlimit="10" d="M166.936,182.938
	c-0.039,0.856,0.14,2.35-0.086,2.651c-0.342,0.456-0.193,0.668-0.998,1.002c-0.531,0.221-1.825,0.083-2.252-0.718
	c-0.32-0.599-0.257-2.256-0.257-3.172c0-1.037-0.168-2.689,0.145-3.385c0.332-0.742,1.36-0.741,1.88-0.741
	c0.435,0,1.027,0.259,1.34,0.798C167.121,180.084,167.002,181.46,166.936,182.938z"/>
<path opacity="0.7" fill="#442922" stroke="#442922" stroke-miterlimit="10" d="M262.894,220.745
	c-10.969,0-20.637-4.576-27.038-11.868c-5.059-5.77-8.215-13.698-8.215-21.946c0-8.332,2.148-15.973,7.303-21.967
	c6.4-7.442,17.069-11.847,27.952-11.847c10.732,0,19.502,5.046,26.023,12.191c5.417,5.933,9.015,14.645,9.015,23.118"/>
<path opacity="0.7" fill="#442922" stroke="#442922" stroke-miterlimit="10" d="M297.935,188.427
	c0,18.674-15.396,32.318-35.041,32.318"/>
<path opacity="0.9" fill="#FEFAF5" stroke="#F1D6B1" stroke-miterlimit="10" d="M261.43,217.813
	c-17.519,0-31.722-13.583-31.722-30.336s14.203-30.336,31.722-30.336c17.519,0,31.719,13.583,31.719,30.336
	S278.948,217.813,261.43,217.813"/>
<path opacity="0.5" fill="#442922" stroke="#F1D6B1" stroke-miterlimit="10" d="M233.151,185.775
	c0.038-7.694,4.219-14.948,9.68-18.932c2.85-2.079,8.007-5.018,14.445-5.4c5.513-0.328,10.647,0.197,15.662,2.74
	c1.397,0.707,2.317,0.985,4.333,2.661c0.846,0.703,2.955,3.333,3.497,4.106c1.085,1.541,2.062,4.714,3.833,6.613
	c0.812,0.871,2.605,1.945,3.175,3.194c0.522,1.138,1.13,2.408,1.354,4.447c0.329,3.047,1.237,10.607-1.125,13.458
	c-1.962,2.371-1.602,0.361-4.498,3.992c-1.843,2.313-8.006,6.64-10.474,8.055c-3.79,2.171-11.455,2.894-12.854,2.894
	c-9.956,0-17.826-5.63-21.896-11.975C235.188,196.804,233.119,192.121,233.151,185.775z"/>
<path opacity="0.9" fill="#FEFAF5" stroke="#F1D6B1" stroke-miterlimit="10" d="M239.452,188.859c0-5.233,2.083-9.993,5.489-13.537
	c3.726-3.874,9.029-5.494,14.915-5.494c5.737,0,10.92,1.5,14.627,5.204c3.576,3.571,5.778,9.252,5.778,14.628
	c0,5.204-1.329,9.417-4.703,12.954c-3.725,3.91-9.788,6.076-15.703,6.076c-6.417,0-12.142-2.878-15.882-7.379
	C241.144,197.907,239.452,193.576,239.452,188.859z"/>
<path opacity="0.7" fill="#442922" stroke="#442922" stroke-miterlimit="10" d="M283.924,190.681
	c0.039-0.856-0.138-2.351,0.086-2.653c0.342-0.455,0.192-0.667,0.998-1.002c0.53-0.221,1.822-0.083,2.253,0.718
	c0.32,0.598,0.254,2.256,0.254,3.172c0,1.038,0.17,2.69-0.142,3.385c-0.334,0.741-1.36,0.741-1.883,0.741
	c-0.434,0-1.025-0.259-1.338-0.799C283.738,193.532,283.858,192.157,283.924,190.681z"/>
<line fill="none" stroke="#432821" stroke-width="2" stroke-miterlimit="10" x1="187.966" y1="221.204" x2="187.966" y2="238.604"/>
<line fill="none" stroke="#432821" stroke-width="2" stroke-miterlimit="10" x1="262.789" y1="221.204" x2="262.789" y2="238.604"/>
<line fill="none" stroke="#432821" stroke-width="2" stroke-miterlimit="10" x1="188.638" y1="220.802" x2="188.638" y2="238.201"/>
<line fill="none" stroke="#432821" stroke-width="2" stroke-miterlimit="10" x1="188.638" y1="237.146" x2="263.568" y2="237.146"/>
<line fill="none" stroke="#432821" stroke-width="2" stroke-miterlimit="10" x1="227.129" y1="239.292" x2="227.129" y2="274.248"/>
<line fill="none" stroke="#432821" stroke-width="2" stroke-miterlimit="10" x1="263.461" y1="220.802" x2="263.461" y2="238.201"/>
<g>
	<path opacity="0.7" fill="#442922" stroke="#442922" stroke-miterlimit="10" d="M151.777,274.229
		c10.969,0,20.638,4.576,27.036,11.868c5.062,5.77,8.216,13.697,8.216,21.946c0,8.332-2.147,15.972-7.304,21.967
		c-6.399,7.443-17.068,11.847-27.948,11.847c-10.733,0-19.503-5.046-26.025-12.191c-5.417-5.933-9.014-14.646-9.014-23.118"/>
	<path opacity="0.7" fill="#442922" stroke="#442922" stroke-miterlimit="10" d="M116.738,306.547
		c0-18.675,15.393-32.318,35.039-32.318"/>
	<path opacity="0.9" fill="#FEFAF5" stroke="#F1D6B1" stroke-miterlimit="10" d="M153.242,277.16
		c17.519,0,31.719,13.583,31.719,30.336c0,16.755-14.201,30.337-31.719,30.337c-17.519,0-31.72-13.583-31.72-30.337
		C121.522,290.742,135.723,277.16,153.242,277.16"/>
	<path opacity="0.5" fill="#442922" stroke="#F1D6B1" stroke-miterlimit="10" d="M181.52,309.198
		c-0.036,7.694-4.218,14.948-9.682,18.932c-2.849,2.079-8.005,5.018-14.443,5.401c-5.513,0.328-10.647-0.197-15.664-2.74
		c-1.396-0.708-2.317-0.984-4.333-2.661c-0.846-0.703-2.953-3.334-3.497-4.105c-1.085-1.542-2.061-4.715-3.831-6.614
		c-0.812-0.871-2.607-1.945-3.178-3.194c-0.52-1.137-1.13-2.407-1.352-4.448c-0.331-3.046-1.237-10.605,1.124-13.458
		c1.963-2.37,1.605-0.36,4.498-3.991c1.846-2.313,8.006-6.64,10.476-8.055c3.789-2.17,11.455-2.893,12.854-2.893
		c9.956,0,17.825,5.629,21.895,11.975C179.483,298.169,181.552,302.853,181.52,309.198z"/>
	<path opacity="0.9" fill="#FEFAF5" stroke="#F1D6B1" stroke-miterlimit="10" d="M175.221,306.114c0,5.234-2.085,9.992-5.493,13.536
		c-3.724,3.874-9.028,5.493-14.912,5.493c-5.737,0-10.922-1.499-14.629-5.203c-3.574-3.572-5.777-9.252-5.777-14.629
		c0-5.204,1.326-9.416,4.7-12.953c3.727-3.91,9.791-6.076,15.707-6.076c6.416,0,12.141,2.877,15.882,7.38
		C173.527,297.066,175.221,301.397,175.221,306.114z"/>
	<path opacity="0.7" fill="#442922" stroke="#442922" stroke-miterlimit="10" d="M130.747,304.293
		c-0.038,0.855,0.141,2.35-0.087,2.651c-0.341,0.457-0.193,0.668-0.997,1.003c-0.531,0.221-1.825,0.083-2.252-0.718
		c-0.32-0.599-0.257-2.256-0.257-3.172c0-1.037-0.169-2.689,0.144-3.385c0.332-0.742,1.361-0.741,1.881-0.741
		c0.435,0,1.027,0.259,1.34,0.798C130.932,301.441,130.813,302.816,130.747,304.293z"/>
</g>
<g>
	<path opacity="0.7" fill="#442922" stroke="#442922" stroke-miterlimit="10" d="M226.705,342.101
		c-10.969,0-20.636-4.576-27.037-11.868c-5.06-5.77-8.216-13.698-8.216-21.946c0-8.331,2.148-15.973,7.304-21.966
		c6.399-7.443,17.068-11.847,27.951-11.847c10.731,0,19.502,5.046,26.024,12.191c5.416,5.933,9.014,14.646,9.014,23.118"/>
	<path opacity="0.7" fill="#442922" stroke="#442922" stroke-miterlimit="10" d="M261.745,309.782
		c0,18.675-15.395,32.318-35.041,32.318"/>
	<path opacity="0.9" fill="#FEFAF5" stroke="#F1D6B1" stroke-miterlimit="10" d="M225.241,339.169
		c-17.519,0-31.722-13.582-31.722-30.336c0-16.753,14.203-30.336,31.722-30.336c17.518,0,31.718,13.583,31.718,30.336
		C256.959,325.587,242.759,339.169,225.241,339.169"/>
	<path opacity="0.5" fill="#442922" stroke="#F1D6B1" stroke-miterlimit="10" d="M196.961,307.13
		c0.039-7.694,4.219-14.948,9.68-18.931c2.851-2.079,8.008-5.018,14.446-5.401c5.513-0.328,10.648,0.198,15.663,2.74
		c1.397,0.707,2.318,0.984,4.334,2.661c0.845,0.702,2.955,3.333,3.497,4.106c1.085,1.541,2.063,4.714,3.833,6.614
		c0.812,0.871,2.605,1.945,3.175,3.193c0.522,1.138,1.13,2.408,1.353,4.448c0.33,3.047,1.238,10.607-1.125,13.458
		c-1.963,2.37-1.601,0.361-4.499,3.991c-1.843,2.313-8.005,6.64-10.474,8.055c-3.79,2.171-11.454,2.893-12.853,2.893
		c-9.956,0-17.826-5.629-21.896-11.975C198.999,318.16,196.93,313.476,196.961,307.13z"/>
	<path opacity="0.9" fill="#FEFAF5" stroke="#F1D6B1" stroke-miterlimit="10" d="M203.263,310.216c0-5.234,2.083-9.993,5.489-13.538
		c3.727-3.874,9.03-5.493,14.915-5.493c5.738,0,10.92,1.5,14.627,5.204c3.576,3.571,5.779,9.252,5.779,14.629
		c0,5.203-1.33,9.416-4.704,12.953c-3.724,3.91-9.788,6.076-15.703,6.076c-6.417,0-12.142-2.877-15.882-7.379
		C204.954,319.263,203.263,314.932,203.263,310.216z"/>
	<path opacity="0.7" fill="#442922" stroke="#442922" stroke-miterlimit="10" d="M247.735,312.036
		c0.038-0.856-0.139-2.351,0.086-2.652c0.342-0.456,0.192-0.668,0.998-1.003c0.53-0.221,1.822-0.083,2.253,0.718
		c0.32,0.599,0.254,2.257,0.254,3.173c0,1.036,0.171,2.689-0.141,3.385c-0.334,0.741-1.36,0.741-1.883,0.741
		c-0.435,0-1.025-0.259-1.338-0.798C247.548,314.888,247.67,313.513,247.735,312.036z"/>
</g>
<line fill="none" stroke="#432821" stroke-width="2" stroke-miterlimit="10" x1="152" y1="341.857" x2="152" y2="359.256"/>
<line fill="none" stroke="#432821" stroke-width="2" stroke-miterlimit="10" x1="152" y1="358.2" x2="226.927" y2="358.2"/>
<line fill="none" stroke="#432821" stroke-width="2" stroke-miterlimit="10" x1="189.415" y1="358.2" x2="232.221" y2="399.797"/>
<line fill="none" stroke="#432821" stroke-width="2" stroke-miterlimit="10" x1="226.822" y1="341.857" x2="226.822" y2="359.256"/>
<path fill="none" stroke="#432821" stroke-width="2" stroke-miterlimit="10" d="M189.415,358.2"/>
<line fill="none" stroke="#432821" stroke-width="2" stroke-miterlimit="10" x1="189.415" y1="358.2" x2="140.438" y2="400.041"/>
<g>
	<path opacity="0.7" fill="#442922" stroke="#442922" stroke-miterlimit="10" d="M62.771,399.101
		c10.969,0,20.638,4.576,27.036,11.868c5.062,5.769,8.216,13.697,8.216,21.946c0,8.333-2.147,15.972-7.304,21.968
		c-6.399,7.443-17.068,11.846-27.948,11.846c-10.733,0-19.503-5.046-26.024-12.191c-5.417-5.934-9.015-14.646-9.015-23.119"/>
	<path opacity="0.7" fill="#442922" stroke="#442922" stroke-miterlimit="10" d="M27.732,431.419
		c0-18.675,15.393-32.318,35.04-32.318"/>
	<path opacity="0.9" fill="#FEFAF5" stroke="#F1D6B1" stroke-miterlimit="10" d="M64.236,402.032c17.52,0,31.72,13.583,31.72,30.336
		c0,16.755-14.2,30.337-31.72,30.337c-17.519,0-31.719-13.583-31.719-30.337C32.517,415.614,46.718,402.032,64.236,402.032"/>
	<path opacity="0.5" fill="#442922" stroke="#F1D6B1" stroke-miterlimit="10" d="M92.515,434.07
		c-0.037,7.694-4.218,14.948-9.682,18.932c-2.849,2.079-8.006,5.018-14.444,5.4c-5.513,0.328-10.647-0.196-15.663-2.738
		c-1.397-0.71-2.317-0.986-4.334-2.662c-0.845-0.703-2.953-3.334-3.497-4.106c-1.085-1.541-2.061-4.714-3.831-6.614
		c-0.811-0.871-2.606-1.945-3.177-3.194c-0.519-1.137-1.129-2.408-1.351-4.448c-0.331-3.046-1.237-10.606,1.123-13.457
		c1.963-2.37,1.604-0.362,4.499-3.992c1.845-2.312,8.005-6.64,10.475-8.055c3.79-2.171,11.456-2.894,12.854-2.894
		c9.957,0,17.826,5.629,21.896,11.975C90.478,423.041,92.547,427.725,92.515,434.07z"/>
	<path opacity="0.9" fill="#FEFAF5" stroke="#F1D6B1" stroke-miterlimit="10" d="M86.215,430.986c0,5.234-2.084,9.992-5.492,13.537
		c-3.725,3.874-9.028,5.493-14.912,5.493c-5.737,0-10.922-1.499-14.629-5.204c-3.574-3.572-5.778-9.252-5.778-14.628
		c0-5.204,1.328-9.416,4.701-12.954c3.728-3.909,9.79-6.075,15.706-6.075c6.416,0,12.141,2.877,15.883,7.379
		C84.522,421.938,86.215,426.269,86.215,430.986z"/>
	<path opacity="0.7" fill="#442922" stroke="#442922" stroke-miterlimit="10" d="M41.742,429.165
		c-0.038,0.856,0.141,2.351-0.087,2.651c-0.341,0.457-0.193,0.667-0.998,1.003c-0.531,0.221-1.825,0.083-2.251-0.718
		c-0.321-0.599-0.257-2.257-0.257-3.172c0-1.038-0.169-2.689,0.143-3.385c0.332-0.741,1.361-0.741,1.881-0.741
		c0.435,0,1.027,0.259,1.34,0.798C41.927,426.313,41.808,427.688,41.742,429.165z"/>
</g>
<g>
	<path opacity="0.7" fill="#442922" stroke="#442922" stroke-miterlimit="10" d="M137.7,466.973
		c-10.97,0-20.637-4.576-27.038-11.868c-5.06-5.77-8.216-13.699-8.216-21.947c0-8.332,2.149-15.973,7.304-21.966
		c6.4-7.443,17.068-11.847,27.951-11.847c10.732,0,19.501,5.045,26.024,12.191c5.416,5.932,9.014,14.646,9.014,23.118"/>
	<path opacity="0.7" fill="#442922" stroke="#442922" stroke-miterlimit="10" d="M172.74,434.655
		c0,18.674-15.395,32.318-35.04,32.318"/>
	<path opacity="0.9" fill="#FEFAF5" stroke="#F1D6B1" stroke-miterlimit="10" d="M136.236,464.041
		c-17.518,0-31.722-13.582-31.722-30.336c0-16.753,14.204-30.336,31.722-30.336c17.519,0,31.719,13.583,31.719,30.336
		C167.955,450.459,153.755,464.041,136.236,464.041"/>
	<path opacity="0.5" fill="#442922" stroke="#F1D6B1" stroke-miterlimit="10" d="M107.956,432.003
		c0.039-7.694,4.22-14.948,9.681-18.932c2.851-2.079,8.007-5.017,14.445-5.4c5.513-0.328,10.648,0.198,15.664,2.74
		c1.397,0.708,2.317,0.984,4.333,2.661c0.845,0.703,2.954,3.333,3.497,4.105c1.085,1.542,2.062,4.715,3.832,6.614
		c0.812,0.872,2.605,1.944,3.175,3.193c0.522,1.138,1.13,2.408,1.353,4.448c0.33,3.047,1.239,10.607-1.125,13.458
		c-1.962,2.371-1.601,0.361-4.498,3.992c-1.843,2.313-8.006,6.64-10.475,8.055c-3.79,2.171-11.455,2.894-12.854,2.894
		c-9.955,0-17.826-5.629-21.896-11.975C109.994,443.033,107.924,438.349,107.956,432.003z"/>
	<path opacity="0.9" fill="#FEFAF5" stroke="#F1D6B1" stroke-miterlimit="10" d="M114.258,435.087c0-5.234,2.083-9.993,5.489-13.537
		c3.727-3.873,9.03-5.494,14.915-5.494c5.738,0,10.92,1.499,14.627,5.205c3.576,3.571,5.779,9.251,5.779,14.628
		c0,5.203-1.329,9.416-4.703,12.954c-3.724,3.909-9.788,6.075-15.703,6.075c-6.417,0-12.142-2.877-15.882-7.379
		C115.949,444.136,114.258,439.803,114.258,435.087z"/>
	<path opacity="0.7" fill="#442922" stroke="#442922" stroke-miterlimit="10" d="M158.73,436.908
		c0.038-0.856-0.139-2.351,0.086-2.651c0.342-0.456,0.192-0.669,0.998-1.004c0.53-0.221,1.823-0.082,2.254,0.718
		c0.32,0.6,0.254,2.256,0.254,3.173c0,1.037,0.171,2.689-0.141,3.385c-0.334,0.741-1.361,0.741-1.883,0.741
		c-0.435,0-1.025-0.259-1.339-0.799C158.543,439.76,158.665,438.385,158.73,436.908z"/>
</g>
<line fill="none" stroke="#432821" stroke-width="2" stroke-miterlimit="10" x1="65.81" y1="467.426" x2="65.81" y2="484.824"/>
<line fill="none" stroke="#432821" stroke-width="2" stroke-miterlimit="10" x1="64.981" y1="483.77" x2="139.912" y2="483.77"/>
<line fill="none" stroke="#432821" stroke-width="2" stroke-miterlimit="10" x1="139.805" y1="467.426" x2="139.805" y2="484.824"/>
<path opacity="0.7" fill="#442922" stroke="#442922" stroke-miterlimit="10" d="M97.916,528.415
	c10.969,0,20.638,4.576,27.037,11.868c5.062,5.77,8.216,13.697,8.216,21.944c0,8.333-2.146,15.976-7.303,21.969
	c-6.4,7.443-17.068,11.846-27.95,11.846c-10.732,0-19.502-5.046-26.024-12.19c-5.416-5.933-9.014-14.646-9.014-23.117"/>
<path opacity="0.7" fill="#442922" stroke="#442922" stroke-miterlimit="10" d="M62.878,560.734
	c0-18.676,15.392-32.319,35.038-32.319"/>
<path opacity="0.9" fill="#FEFAF5" stroke="#F1D6B1" stroke-miterlimit="10" d="M99.38,531.347
	c17.521,0,31.722,13.582,31.722,30.336c0,16.755-14.202,30.335-31.722,30.335c-17.517,0-31.717-13.58-31.717-30.335
	C67.663,544.929,81.863,531.347,99.38,531.347"/>
<path opacity="0.5" fill="#442922" stroke="#F1D6B1" stroke-miterlimit="10" d="M127.661,563.385
	c-0.039,7.694-4.219,14.948-9.682,18.932c-2.849,2.079-8.005,5.018-14.445,5.401c-5.511,0.327-10.646-0.197-15.663-2.74
	c-1.398-0.709-2.318-0.985-4.333-2.661c-0.847-0.703-2.953-3.334-3.498-4.105c-1.084-1.541-2.061-4.714-3.833-6.613
	c-0.811-0.872-2.604-1.946-3.175-3.195c-0.519-1.137-1.13-2.405-1.352-4.448c-0.331-3.046-1.236-10.604,1.124-13.456
	c1.962-2.371,1.603-0.361,4.498-3.991c1.845-2.314,8.006-6.642,10.476-8.057c3.79-2.17,11.455-2.893,12.854-2.893
	c9.956,0,17.824,5.629,21.896,11.974C125.624,552.355,127.691,557.039,127.661,563.385z"/>
<path opacity="0.9" fill="#FEFAF5" stroke="#F1D6B1" stroke-miterlimit="10" d="M121.362,560.302c0,5.232-2.087,9.991-5.493,13.536
	c-3.724,3.873-9.028,5.491-14.914,5.491c-5.738,0-10.919-1.497-14.628-5.202c-3.575-3.572-5.778-9.253-5.778-14.629
	c0-5.204,1.328-9.416,4.699-12.953c3.728-3.909,9.792-6.077,15.707-6.077c6.417,0,12.142,2.879,15.883,7.382
	C119.667,551.253,121.362,555.584,121.362,560.302z"/>
<path opacity="0.7" fill="#442922" stroke="#442922" stroke-miterlimit="10" d="M76.888,558.479c-0.04,0.857,0.14,2.35-0.087,2.652
	c-0.34,0.457-0.193,0.667-0.997,1.003c-0.533,0.221-1.825,0.083-2.253-0.719c-0.319-0.598-0.257-2.257-0.257-3.173
	c0-1.036-0.168-2.688,0.144-3.384c0.333-0.741,1.361-0.741,1.88-0.741c0.435,0,1.027,0.259,1.34,0.799
	C77.073,555.628,76.953,557.003,76.888,558.479z"/>
<g>
	<path opacity="0.7" fill="#442922" stroke="#442922" stroke-miterlimit="10" d="M235.48,399.797"/>
	<path opacity="0.7" fill="#442922" stroke="#442922" stroke-miterlimit="10" d="M235.48,399.797"/>
	<path opacity="0.7" fill="#442922" stroke="#442922" stroke-miterlimit="10" d="M239.729,398.431
		c10.969,0,20.638,4.576,27.036,11.87c5.062,5.768,8.216,13.697,8.216,21.944c0,8.333-2.146,15.973-7.303,21.968
		c-6.4,7.443-17.068,11.848-27.949,11.848c-10.734,0-19.504-5.047-26.025-12.191c-5.417-5.934-9.015-14.646-9.015-23.119"/>
	<path opacity="0.7" fill="#442922" stroke="#442922" stroke-miterlimit="10" d="M204.689,430.75
		c0-18.675,15.394-32.319,35.04-32.319"/>
	<path opacity="0.9" fill="#FEFAF5" stroke="#F1D6B1" stroke-miterlimit="10" d="M241.194,401.364
		c17.518,0,31.719,13.581,31.719,30.335c0,16.755-14.201,30.336-31.719,30.336s-31.72-13.581-31.72-30.336
		C209.474,414.945,223.676,401.364,241.194,401.364"/>
	<path opacity="0.5" fill="#442922" stroke="#F1D6B1" stroke-miterlimit="10" d="M269.472,433.402
		c-0.038,7.693-4.218,14.947-9.681,18.932c-2.85,2.078-8.007,5.016-14.444,5.4c-5.513,0.327-10.647-0.197-15.663-2.74
		c-1.398-0.708-2.317-0.985-4.333-2.66c-0.847-0.704-2.954-3.335-3.498-4.107c-1.085-1.54-2.062-4.713-3.832-6.614
		c-0.811-0.871-2.605-1.944-3.176-3.193c-0.52-1.138-1.129-2.407-1.352-4.448c-0.331-3.045-1.237-10.605,1.124-13.458
		c1.963-2.37,1.604-0.36,4.499-3.991c1.845-2.314,8.005-6.641,10.475-8.056c3.789-2.171,11.455-2.893,12.854-2.893
		c9.957,0,17.824,5.63,21.896,11.975C267.436,422.373,269.503,427.056,269.472,433.402z"/>
	<path opacity="0.9" fill="#FEFAF5" stroke="#F1D6B1" stroke-miterlimit="10" d="M263.174,430.317c0,5.233-2.086,9.993-5.493,13.537
		c-3.726,3.872-9.028,5.493-14.913,5.493c-5.737,0-10.922-1.499-14.628-5.203c-3.575-3.572-5.778-9.253-5.778-14.629
		c0-5.204,1.328-9.417,4.7-12.954c3.728-3.908,9.79-6.076,15.706-6.076c6.417,0,12.142,2.879,15.883,7.38
		C261.479,421.269,263.174,425.6,263.174,430.317z"/>
	<path opacity="0.7" fill="#442922" stroke="#442922" stroke-miterlimit="10" d="M218.699,428.497
		c-0.038,0.856,0.142,2.349-0.085,2.651c-0.342,0.457-0.195,0.668-0.999,1.002c-0.532,0.221-1.824,0.083-2.252-0.717
		c-0.32-0.598-0.256-2.257-0.256-3.173c0-1.037-0.169-2.689,0.141-3.384c0.333-0.741,1.363-0.741,1.882-0.741
		c0.435,0,1.027,0.258,1.341,0.797C218.884,425.644,218.765,427.019,218.699,428.497z"/>
</g>
<g>
	<path opacity="0.7" fill="#442922" stroke="#442922" stroke-miterlimit="10" d="M314.657,466.305
		c-10.969,0-20.636-4.576-27.035-11.87c-5.062-5.769-8.217-13.697-8.217-21.945c0-8.332,2.148-15.972,7.304-21.967
		c6.399-7.442,17.067-11.847,27.948-11.847c10.734,0,19.504,5.046,26.027,12.191c5.416,5.933,9.014,14.646,9.014,23.118"/>
	<path opacity="0.7" fill="#442922" stroke="#442922" stroke-miterlimit="10" d="M349.698,433.985
		c0,18.675-15.395,32.319-35.041,32.319"/>
	<path opacity="0.9" fill="#FEFAF5" stroke="#F1D6B1" stroke-miterlimit="10" d="M313.192,463.373
		c-17.517,0-31.72-13.583-31.72-30.337s14.203-30.335,31.72-30.335c17.52,0,31.721,13.581,31.72,30.335
		C344.912,449.79,330.711,463.373,313.192,463.373"/>
	<path opacity="0.5" fill="#442922" stroke="#F1D6B1" stroke-miterlimit="10" d="M284.915,431.333
		c0.039-7.694,4.219-14.947,9.68-18.932c2.849-2.078,8.008-5.016,14.445-5.4c5.513-0.328,10.646,0.197,15.663,2.74
		c1.398,0.707,2.317,0.985,4.335,2.66c0.844,0.703,2.953,3.334,3.495,4.106c1.085,1.54,2.062,4.714,3.833,6.614
		c0.811,0.871,2.605,1.944,3.175,3.194c0.521,1.136,1.13,2.406,1.354,4.447c0.329,3.045,1.237,10.605-1.126,13.458
		c-1.962,2.37-1.603,0.36-4.496,3.992c-1.846,2.313-8.006,6.64-10.478,8.054c-3.788,2.172-11.454,2.895-12.852,2.895
		c-9.956,0-17.827-5.63-21.897-11.977C286.952,442.362,284.882,437.679,284.915,431.333z"/>
	<path opacity="0.9" fill="#FEFAF5" stroke="#F1D6B1" stroke-miterlimit="10" d="M291.213,434.418c0-5.233,2.085-9.992,5.492-13.536
		c3.727-3.874,9.029-5.494,14.913-5.494c5.737,0,10.921,1.5,14.628,5.203c3.575,3.572,5.777,9.253,5.777,14.629
		c0,5.204-1.328,9.416-4.701,12.954c-3.727,3.91-9.789,6.076-15.705,6.076c-6.416,0-12.141-2.879-15.881-7.38
		C292.908,443.466,291.213,439.135,291.213,434.418z"/>
	<path opacity="0.7" fill="#442922" stroke="#442922" stroke-miterlimit="10" d="M335.688,436.238
		c0.037-0.854-0.141-2.349,0.086-2.65c0.342-0.456,0.191-0.667,0.997-1.002c0.53-0.222,1.823-0.084,2.253,0.717
		c0.32,0.598,0.256,2.256,0.256,3.173c0,1.036,0.169,2.689-0.142,3.384c-0.334,0.743-1.362,0.742-1.883,0.742
		c-0.435,0-1.026-0.26-1.34-0.799C335.5,439.091,335.622,437.716,335.688,436.238z"/>
</g>
<g>
	<path opacity="0.7" fill="#442922" stroke="#442922" stroke-miterlimit="10" d="M357.367,153.541
		c10.969,0,20.638,4.576,27.036,11.87c5.062,5.768,8.216,13.697,8.216,21.944c0,8.333-2.146,15.973-7.303,21.968
		c-6.4,7.444-17.068,11.847-27.949,11.847c-10.734,0-19.504-5.046-26.025-12.191c-5.417-5.934-9.015-14.646-9.015-23.119"/>
	<path opacity="0.7" fill="#442922" stroke="#442922" stroke-miterlimit="10" d="M322.327,185.86
		c0-18.675,15.394-32.319,35.04-32.319"/>
	<path opacity="0.9" fill="#FEFAF5" stroke="#F1D6B1" stroke-miterlimit="10" d="M358.832,156.473
		c17.518,0,31.719,13.581,31.719,30.335c0,16.755-14.201,30.336-31.719,30.336s-31.72-13.582-31.72-30.336
		C327.112,170.054,341.314,156.473,358.832,156.473"/>
	<path opacity="0.5" fill="#442922" stroke="#F1D6B1" stroke-miterlimit="10" d="M387.11,188.511
		c-0.038,7.693-4.218,14.947-9.681,18.932c-2.85,2.078-8.007,5.016-14.444,5.4c-5.513,0.327-10.647-0.198-15.663-2.74
		c-1.398-0.708-2.317-0.985-4.333-2.66c-0.847-0.704-2.954-3.335-3.498-4.107c-1.085-1.54-2.062-4.713-3.832-6.614
		c-0.811-0.871-2.605-1.944-3.176-3.193c-0.52-1.138-1.129-2.407-1.352-4.448c-0.331-3.045-1.237-10.605,1.124-13.458
		c1.963-2.37,1.604-0.36,4.499-3.991c1.845-2.314,8.005-6.641,10.475-8.056c3.789-2.171,11.455-2.893,12.854-2.893
		c9.957,0,17.824,5.63,21.896,11.975C385.074,177.482,387.142,182.165,387.11,188.511z"/>
	<path opacity="0.9" fill="#FEFAF5" stroke="#F1D6B1" stroke-miterlimit="10" d="M380.812,185.427c0,5.233-2.086,9.993-5.493,13.537
		c-3.726,3.872-9.028,5.493-14.913,5.493c-5.737,0-10.922-1.499-14.628-5.203C342.203,195.681,340,190,340,184.625
		c0-5.204,1.328-9.417,4.7-12.954c3.728-3.908,9.79-6.076,15.706-6.076c6.417,0,12.142,2.879,15.883,7.38
		C379.117,176.378,380.812,180.709,380.812,185.427z"/>
	<path opacity="0.7" fill="#442922" stroke="#442922" stroke-miterlimit="10" d="M336.337,183.606
		c-0.038,0.856,0.142,2.349-0.085,2.651c-0.342,0.457-0.195,0.668-0.999,1.002c-0.532,0.221-1.824,0.083-2.252-0.717
		c-0.32-0.598-0.256-2.257-0.256-3.173c0-1.037-0.169-2.689,0.141-3.384c0.333-0.741,1.363-0.741,1.882-0.741
		c0.435,0,1.027,0.258,1.341,0.797C336.522,180.753,336.403,182.128,336.337,183.606z"/>
</g>
<path opacity="0.7" fill="#442922" stroke="#442922" stroke-miterlimit="10" d="M432.295,221.414
	c-10.969,0-20.636-4.577-27.035-11.87c-5.062-5.769-8.217-13.697-8.217-21.945c0-8.332,2.148-15.972,7.304-21.967
	c6.399-7.442,17.067-11.847,27.948-11.847c10.734,0,19.504,5.046,26.027,12.191c5.416,5.933,9.014,14.646,9.014,23.118"/>
<path opacity="0.7" fill="#442922" stroke="#442922" stroke-miterlimit="10" d="M467.336,189.095
	c0,18.675-15.395,32.319-35.041,32.319"/>
<path opacity="0.9" fill="#FEFAF5" stroke="#F1D6B1" stroke-miterlimit="10" d="M430.83,218.482
	c-17.517,0-31.72-13.583-31.72-30.337s14.203-30.335,31.72-30.335c17.52,0,31.721,13.581,31.72,30.335
	C462.55,204.899,448.35,218.482,430.83,218.482"/>
<path opacity="0.5" fill="#442922" stroke="#F1D6B1" stroke-miterlimit="10" d="M402.553,186.443
	c0.039-7.694,4.219-14.947,9.68-18.932c2.849-2.078,8.008-5.016,14.445-5.4c5.513-0.328,10.646,0.197,15.663,2.74
	c1.398,0.707,2.317,0.985,4.335,2.66c0.844,0.703,2.953,3.334,3.495,4.106c1.085,1.54,2.062,4.714,3.833,6.614
	c0.811,0.871,2.605,1.944,3.175,3.194c0.521,1.136,1.13,2.406,1.354,4.447c0.329,3.045,1.237,10.605-1.126,13.458
	c-1.962,2.37-1.603,0.36-4.496,3.992c-1.846,2.313-8.006,6.64-10.478,8.055c-3.788,2.172-11.454,2.894-12.852,2.894
	c-9.956,0-17.827-5.63-21.897-11.977C404.59,197.472,402.521,192.789,402.553,186.443z"/>
<path opacity="0.9" fill="#FEFAF5" stroke="#F1D6B1" stroke-miterlimit="10" d="M408.852,189.527c0-5.233,2.085-9.992,5.492-13.536
	c3.727-3.874,9.029-5.494,14.913-5.494c5.737,0,10.921,1.5,14.628,5.203c3.575,3.572,5.777,9.253,5.777,14.629
	c0,5.204-1.328,9.416-4.701,12.954c-3.727,3.91-9.789,6.076-15.705,6.076c-6.416,0-12.141-2.879-15.881-7.38
	C410.546,198.576,408.852,194.245,408.852,189.527z"/>
<path opacity="0.7" fill="#442922" stroke="#442922" stroke-miterlimit="10" d="M453.326,191.347
	c0.037-0.854-0.141-2.349,0.086-2.65c0.342-0.456,0.191-0.667,0.997-1.002c0.53-0.222,1.823-0.084,2.253,0.717
	c0.32,0.598,0.256,2.256,0.256,3.173c0,1.036,0.169,2.689-0.142,3.384c-0.334,0.743-1.362,0.742-1.883,0.742
	c-0.435,0-1.026-0.26-1.34-0.799C453.139,194.201,453.26,192.826,453.326,191.347z"/>
<line fill="none" stroke="#432821" stroke-width="2" stroke-miterlimit="10" x1="98.023" y1="483.062" x2="98.023" y2="527.401"/>
</svg>
