<?xml version="1.0" encoding="iso-8859-1"?>
<!-- Generator: Adobe Illustrator 16.0.0, SVG Export Plug-In . SVG Version: 6.00 Build 0)  -->
<!DOCTYPE svg PUBLIC "-//W3C//DTD SVG 1.1//EN" "http://www.w3.org/Graphics/SVG/1.1/DTD/svg11.dtd" [
	<!ENTITY ns_flows "http://ns.adobe.com/Flows/1.0/">
	<!ENTITY ns_extend "http://ns.adobe.com/Extensibility/1.0/">
	<!ENTITY ns_ai "http://ns.adobe.com/AdobeIllustrator/10.0/">
	<!ENTITY ns_graphs "http://ns.adobe.com/Graphs/1.0/">
	<!ENTITY ns_vars "http://ns.adobe.com/Variables/1.0/">
	<!ENTITY ns_imrep "http://ns.adobe.com/ImageReplacement/1.0/">
	<!ENTITY ns_sfw "http://ns.adobe.com/SaveForWeb/1.0/">
	<!ENTITY ns_custom "http://ns.adobe.com/GenericCustomNamespace/1.0/">
	<!ENTITY ns_adobe_xpath "http://ns.adobe.com/XPath/1.0/">
]>
<svg version="1.1"
	 xmlns:x="&ns_extend;" xmlns:i="&ns_ai;" xmlns:graph="&ns_graphs;" i:viewOrigin="-39.9341 -3198" i:rulerOrigin="39.9341 5110.3262" i:pageBounds="-39.9341 -3198 3318.7305 -5110.3262"
	 xmlns="http://www.w3.org/2000/svg" xmlns:xlink="http://www.w3.org/1999/xlink" xmlns:a="http://ns.adobe.com/AdobeSVGViewerExtensions/3.0/"
	 x="0px" y="0px" width="3358.7px" height="1912.3px" viewBox="0 0 3358.7 1912.3" enable-background="new 0 0 3358.7 1912.3"
	 xml:space="preserve">
<metadata>
	<variableSets  xmlns="&ns_vars;">
		<variableSet  locked="none" varSetName="binding1">
			<variables></variables>
			<v:sampleDataSets  xmlns:v="&ns_vars;" xmlns="&ns_custom;"></v:sampleDataSets>
		</variableSet>
	</variableSets>
</metadata>
<g id="waage" i:layer="yes" i:dimmedPercent="50" i:rgbTrio="#000099999999">
	<g>
		<path i:knockout="Off" fill="#D5A983" d="M1456.9,585.7c0,0-2.7-44.6,10.6-45.5s168,0,168,0l2.2-0.4l-158.3,5.3l-1.3,38l-19,2.7"
			/>
		<path i:knockout="Off" fill="#D5A983" d="M1975.5,681.3l9.7,61l-23,40.7l-25.6,5.3c0,0-36.2,603.7-51.3,702.9
			c-15,99.2-578,145.4-594.1,0c-16.8-151.2-25.3-150.4-84-693.1l-15.9-2.7l-22.1-44.2v-44.8L1975.5,681.3z"/>
		<path i:knockout="Off" fill="#432821" d="M1169,712l21.8,5.3l5.3,32.4c0,0-8.8,31.8-17.7,31.8s-24.2-9.4-25.9-6.5
			c-1.8,2.9-4.9,29.4,21.8,21.2c24.7-7.6,27.1-3.5,27.1-3.5l0.5,14.7c0,0-40,10-47.1,8.3c-7.1-1.8-18.9-10.6-17.7-30.1
			c1.2-19.4,5.3-31.2,12.4-28.9c7.1,2.4,8.7,7.2,20,7.2c17.2,0,12.5-27.7,12.5-27.7L1169,712z"/>
		<path i:knockout="Off" fill="#432821" d="M1913.4,793.9c0,0,8.8-31.8,10.6-32.4c1.8-0.6,43-13.6,43-13.6l-11.2,31.8L1913.4,793.9z
			"/>
		<polygon i:knockout="Off" fill="#432821" points="1161.6,709 1190.1,718.8 1201.9,791.9 1183.6,791.9 1175.4,774.5 1158.3,745.6 
					"/>
		<path i:knockout="Off" fill="none" stroke="#FBF7F5" stroke-width="3" stroke-miterlimit="10" d="M1203.5,798.6
			c0,0-7.1-41.3,8.3-18.9c15.3,22.4,88.4,707.3,88.4,707.3l15.3,8.3c0,0-77.5-697-77.8-703.7c-0.3-6.8,4.7-20,11.8-10.6
			c7.1,9.4,74.3,719.1,74.3,719.1l15.3,4.7c0,0-54.8-602.5-61.3-681.3c-4.1-50.3,63.7-61,97.8-7.4c19.9,31.2,54.2,708.8,54.2,708.8
			l29.5,7.1c0,0-45.8-717.3-43.6-733.2c2.2-15.9,17-12.5,17.7-1.2c0.7,11.3,42.4,734.4,42.4,734.4h34.2c0,0-36.1-621.5-30.6-692
			c5.4-70.4,142.8-65.3,143.8,1.2c1,66.5,10.6,690.8,10.6,690.8h34.2c0,0-1.8-726.9,0-737.9c1.8-11.1,18.9-11.5,18.9,0
			s0,733.2,0,733.2l23.6-2.4c0,0,12.1-600.7,15.3-690.8c1.9-53.3,108-63.2,108.5-23.6c0.4,39.6-25.9,689.6-25.9,689.6l25.9-3.5
			c0,0,29.5-698.7,30.7-714.4c1.2-15.6,11.1-19.7,10.6-9s-33,716.3-33,716.3l14.1-5.9l46.5-695.8"/>
		<path i:knockout="Off" fill="none" stroke="#432821" stroke-width="3" stroke-miterlimit="10" d="M1196.7,798.6
			c0,0-7.1-41.3,8.3-18.9c15.3,22.4,88.4,707.3,88.4,707.3l15.3,8.3c0,0-77.5-697-77.8-703.7c-0.3-6.8,4.7-20,11.8-10.6
			c7.1,9.4,74.3,719.1,74.3,719.1l15.3,4.7c0,0-54.8-602.5-61.3-681.3c-4.1-50.3,63.7-61,97.8-7.4c19.9,31.2,54.2,708.8,54.2,708.8
			l29.5,7.1c0,0-45.8-717.3-43.6-733.2c2.2-15.9,17-12.5,17.7-1.2c0.7,11.3,42.4,734.4,42.4,734.4h34.2c0,0-36.1-621.5-30.6-692
			c5.4-70.4,142.8-65.3,143.8,1.2c1,66.5,10.6,690.8,10.6,690.8h34.2c0,0-1.8-726.9,0-737.9s18.9-11.5,18.9,0s0,733.2,0,733.2
			l23.6-2.4c0,0,12.1-600.7,15.3-690.8c1.9-53.3,108-63.2,108.5-23.6c0.4,39.6-25.9,689.6-25.9,689.6l25.9-3.5
			c0,0,29.5-698.7,30.7-714.4c1.2-15.6,11.1-19.7,10.6-9s-33,716.3-33,716.3l14.1-5.9l46.5-695.8"/>
		<path i:knockout="Off" fill="#432821" d="M1913.9,703.7c23-21.2-34.5,25.6-34.5,25.6l-6.2,32.7l-672.8,30.1
			c0,0-18.5-75.6-8.8-73.4C1278.3,739.1,1891,724.9,1913.9,703.7z"/>
		<path i:knockout="Off" fill="#F2D6B0" d="M1977.6,643.6c-4.1-17.1-47.7-19.5-53-23c-5.3-3.5-13.9-21.2-23-26.5
			c-9.1-5.3-189.8-31.8-206.9-37.1c-17.1-5.3-29.5-19.7-44.2-23c-14.7-3.2-163.6-3.2-178.6,0c-14.3,3.1-46.3,23.9-40.2,23.3
			c-19.6,5-202.9,54.3-212.7,59c-10.6,5-13,13-15.9,18.6s-30.1,12.1-42.1,20.3s-19.7,10.1-12.7,43.3c10,47.2,661.1,89.2,829.3-14.1
			C1977.6,684.3,1981.7,660.7,1977.6,643.6z M1642.2,587l-164.4-3.5v-41.3h156.8c0,0,10-2.9,10,15.9
			C1644.6,577,1642.2,587,1642.2,587z"/>
		<g>
			<polyline i:knockout="Off" fill="none" stroke="#432821" stroke-width="3" stroke-miterlimit="10" points="1478.7,578.4 
				1266.8,617.3 1253.5,659.6 			"/>
			<polyline i:knockout="Off" fill="none" stroke="#432821" stroke-width="3" stroke-miterlimit="10" points="1516.5,588.3 
				1435.9,627.7 1435.9,673.1 			"/>
			<polyline i:knockout="Off" fill="none" stroke="#432821" stroke-width="3" stroke-miterlimit="10" points="1596.3,588.3 
				1671.7,631.2 1671.7,673.1 			"/>
			<polyline i:knockout="Off" fill="none" stroke="#432821" stroke-width="3" stroke-miterlimit="10" points="1644.6,580.5 
				1852.1,612.4 1859.1,652.4 			"/>
			<path i:knockout="Off" fill="none" stroke="#432821" stroke-width="3" stroke-miterlimit="10" d="M1199.3,638.1
				c-33.6,40.4,651.5,73,725.3-17.5"/>
		</g>
		<g>
			<polyline i:knockout="Off" fill="none" stroke="#FBF7F5" stroke-width="3" stroke-miterlimit="10" points="1487.5,580.6 
				1275.6,619.5 1262.4,661.8 			"/>
			<polyline i:knockout="Off" fill="none" stroke="#FBF7F5" stroke-width="3" stroke-miterlimit="10" points="1525.4,590.6 
				1444.8,629.9 1444.8,675.3 			"/>
			<polyline i:knockout="Off" fill="none" stroke="#FBF7F5" stroke-width="3" stroke-miterlimit="10" points="1605.1,590.6 
				1680.6,633.5 1680.6,675.3 			"/>
			<polyline i:knockout="Off" fill="none" stroke="#FBF7F5" stroke-width="3" stroke-miterlimit="10" points="1653.5,582.8 
				1860.9,614.6 1868,654.7 			"/>
			<path i:knockout="Off" fill="none" stroke="#FBF7F5" stroke-width="3" stroke-miterlimit="10" d="M1208.1,640.3
				c-33.6,40.4,651.5,73,725.3-17.5"/>
		</g>
		<path i:knockout="Off" fill="#432821" d="M1958.2,770.9l0.6-1.3l6.5-14.6c0,0,8.8,0.9,12.4-2.7s12.8-10.6,17.2-5.7
			c4.4,4.9,22.1,69.8-18.3,81.3c-40.4,11.5-42.2,13.7-41.3-16.4c0.9-30.1-12.8-18.1-22.1-15.9c-9.3,2.2-15.9,0-26.5-29.6
			c-10.6-29.6-14.6-37.6,3.5-50s27-8.4,23.9,0c-3.1,8.4-15.5,14.6-17.2,16.4c-1.8,1.8,1.3,22.1,4.9,30.5c3.5,8.4,11.1,14.2,24.3,9.1
			c13.3-5.1,25.2-0.7,23.9,18.3s4,27.4,16.8,20.3s18.6-17.7,20.8-21.2c2.2-3.5,6.6-22.5-3.1-21.2c-9.7,1.3-18.1,4.9-22.1,3.8"/>
	</g>
	<ellipse i:knockout="Off" fill="#432821" cx="566.3" cy="1072" rx="343.9" ry="63.4"/>
	<g>
		<polygon i:knockout="Off" fill="#F2D6B0" points="452.3,849.6 689.2,849.6 657.4,1219.6 483,1219.6 		"/>
		<polygon i:knockout="Off" fill="#432821" points="444.7,852.6 449.4,819 461.2,819 461.2,803.1 480.6,803.1 491.8,791.9 
			526,791.9 526,800.7 676.8,803.1 676.8,819 692.7,819.6 696.8,852.6 		"/>
		<g>
			<polygon i:knockout="Off" opacity="0.2" fill="#FBF7F5" points="457.6,869.1 629.1,869.1 603.4,1219.9 484.1,1219.9 			"/>
			<polygon i:knockout="Off" opacity="0.2" fill="#FBF7F5" points="478.8,888.5 523.3,888.5 536,1151.3 492.4,1151.3 			"/>
			<polygon i:knockout="Off" opacity="0.1" fill="#D5A983" points="498.9,802.5 560.7,802.5 560.7,817.2 553.7,817.2 547.5,838.8 
				547.8,852 473.5,852 473.5,839 481.3,835.5 482.4,817.8 492.1,817.6 			"/>
			<polygon i:knockout="Off" fill="#D5A983" points="455.9,941.5 685.6,941.5 671.5,1112.4 470,1112.4 			"/>
		</g>
		<g>
			<path i:knockout="Off" fill="#432821" d="M564.3,1027.3c17.3-7.7,8.2-1.5,17.3-7.7c6.4-4.3,7.6-16.2,7.8-19.7
				c-0.2-0.2-0.4-0.4-0.6-0.5c-10.3-6.5-26.5,0.5-36.1,15.7c-8.5,13.5-9,28.9-1.8,36.7C551.2,1043.9,553.5,1032.1,564.3,1027.3z"/>
			<path i:knockout="Off" fill="#432821" d="M589.8,1000.2c0.8,4,2.5,16.2-4.5,21.6c-9.4,7.2-20.5,9.2-25,14.6
				c-4.4,5.3-7.5,10.9-7.6,17c0.4,0.4,0.8,0.8,1.3,1.1c10.3,6.5,26.5-0.5,36.1-15.7C599.4,1024,599.1,1007.2,589.8,1000.2z"/>
		</g>
	</g>
	<path i:knockout="Off" fill="none" stroke="#432821" stroke-width="10" stroke-miterlimit="10" d="M229.3,593.7
		c0,0,1376.4-120,2680.9,0"/>
	<polyline i:knockout="Off" fill="none" stroke="#432821" stroke-width="10" stroke-miterlimit="10" points="228.3,1087.4 
		561.2,531.5 913.2,1087.4 	"/>
	<path i:knockout="Off" fill="#432821" d="M910.2,1072c0,35-154,63.4-343.9,63.4c-189.9,0-343.9-28.4-343.9-63.4h-4
		c0,142.8,155.7,258.5,347.8,258.5c192.1,0,347.8-115.7,347.8-258.5H910.2z"/>
	<ellipse i:knockout="Off" fill="#432821" cx="2620.2" cy="1062.6" rx="343.9" ry="63.4"/>
	<g>
		<polygon i:knockout="Off" fill="#432821" points="2385.7,1126.8 2404.8,1132.9 2411.9,1135.1 2569.4,1120.6 2550.2,1016.7 
			2443,1020.7 		"/>
		<polygon i:knockout="Off" fill="#432821" points="2944.9,1060.7 3115.6,1038.9 3110,936.2 2962.8,931.9 		"/>
		<path i:knockout="Off" fill="#D5A983" d="M2411.9,1135.1c0,0-50.6-2.8-58.9-16.2c-8.4-13.4-12.5-47.6-12.5-47.6l13.6-18.9
			l-5.8-47.7l59.3-90.7l-5.7-5.8c0,0,137.2-45.8,268.2-63.9c142.4-19.7,186.9,26.6,265.8,51.5l0,0c169.5-23.6,216.9,24.6,216.9,24.6
			l10,14.6l15.7,11.8c0,0,10.4,46.5-0.2,52.1c0,0,9.2,6.5,6.6,8.5c-6.6,5-69.3,31.7-69.3,31.7s-3.6-104.1-92.2-89.1
			c-90.2,15.2-61,109.6-61,109.6l-396.2,61.7c0,0-1-97.6-90.9-84.1C2394.6,1049.1,2411.9,1135.1,2411.9,1135.1z"/>
		<path i:knockout="Off" fill="#F2D6B0" d="M2477.5,962.6c0,0-6.9-4.5-7.8-9.7c-0.8-5.2,12.5-49.3,22.7-57.7
			c10.1-8.3,180.3-43,242-42s196.7,47.9,192.1,55.3C2922,916.1,2477.5,962.6,2477.5,962.6z"/>
		<path i:knockout="Off" fill="#D5A983" d="M2844.6,915.7c-2.6-0.3-3-8.8-2.4-12.7c0.6-3.9,4.6-9.7,7.1-11.4c2.5-1.7,10.3-2,12.6-2
			c2.3-0.1,25.2,9.5,27.1,10.8c1.9,1.4,2,6.6,1.3,7.9C2889.5,909.6,2847.2,916,2844.6,915.7z"/>
		<path i:knockout="Off" fill="#F2D6B0" d="M2553.9,1101c5.9,36.8-19.1,71.4-55.8,77.4c-36.8,6-71.4-19.1-77.4-55.8
			c-6-36.8,19.1-71.4,55.8-77.4C2513.3,1039.2,2548,1064.2,2553.9,1101z"/>
		<path i:knockout="Off" fill="#F2D6B0" d="M3101.9,1012.4c5.9,36.8-19.1,71.4-55.8,77.4c-36.8,5.9-71.4-19.1-77.4-55.8
			c-5.9-36.8,19.1-71.4,55.8-77.4C3061.3,950.6,3095.9,975.6,3101.9,1012.4z"/>
		<g>
			<polyline i:knockout="Off" fill="none" stroke="#D5A983" stroke-width="2" stroke-miterlimit="10" points="2926.5,908.7 
				2918.1,1042.1 2591.5,1094.9 2477.5,962.6 			"/>
			
				<line i:knockout="Off" fill="none" stroke="#D5A983" stroke-width="2" stroke-miterlimit="10" x1="2689.2" y1="856.2" x2="2745" y2="1070.1"/>
		</g>
		<g>
			<polygon i:knockout="Off" fill="#D5A983" points="2451.7,1079.9 2472.3,1065.8 2477.3,1097 			"/>
			<polygon i:knockout="Off" fill="#D5A983" points="2490.3,1063.1 2513.9,1071.4 2491.7,1093.9 			"/>
			<polygon i:knockout="Off" fill="#D5A983" points="2525.4,1083.9 2535.3,1106.9 2503.7,1105.8 			"/>
			<polygon i:knockout="Off" fill="#D5A983" points="2534.6,1127.4 2521,1148.4 2504.3,1121.6 			"/>
			<polygon i:knockout="Off" fill="#D5A983" points="2504.6,1157.4 2479.8,1160.1 2490,1130.3 			"/>
			<polygon i:knockout="Off" fill="#D5A983" points="2466.2,1155.4 2446.9,1139.5 2475.4,1125.9 			"/>
			<polygon i:knockout="Off" fill="#D5A983" points="2440,1120.5 2442.7,1095.6 2469.6,1112.1 			"/>
		</g>
		<g>
			<polygon i:knockout="Off" fill="#D5A983" points="2999.6,991.3 3020.2,977.2 3025.3,1008.4 			"/>
			<polygon i:knockout="Off" fill="#D5A983" points="3038.3,974.5 3061.8,982.8 3039.7,1005.3 			"/>
			<polygon i:knockout="Off" fill="#D5A983" points="3073.4,995.3 3083.2,1018.3 3051.7,1017.2 			"/>
			<polygon i:knockout="Off" fill="#D5A983" points="3082.5,1038.8 3068.9,1059.8 3052.2,1033 			"/>
			<polygon i:knockout="Off" fill="#D5A983" points="3052.6,1068.8 3027.7,1071.5 3037.9,1041.7 			"/>
			<polygon i:knockout="Off" fill="#D5A983" points="3014.2,1066.8 2994.8,1051 3023.3,1037.3 			"/>
			<polygon i:knockout="Off" fill="#D5A983" points="2987.9,1031.9 2990.6,1007 3017.6,1023.5 			"/>
		</g>
		<polygon i:knockout="Off" opacity="0.6" fill="#F2D6B0" points="2943.7,1031.2 2922.4,1027.5 2603.1,1067.6 2573.2,1081.8 		"/>
		<polygon i:knockout="Off" opacity="0.6" fill="#F2D6B0" points="2845.9,903.1 2866.5,903.6 2846.5,906.8 		"/>
		<path i:knockout="Off" opacity="0.6" fill="#F2D6B0" d="M3149,917.2c-3.4-0.4-43-7.1-50-6.3c-7,0.8-12.5,7.5-10,9.3
			c2.6,1.8,30.6,23.6,33.8,23.3s39.8-3.7,36.7-3.4c-3.1,0.3,3.8-2.1,2.8-5.1C3160.7,930.2,3152.3,917.6,3149,917.2z"/>
	</g>
	<path i:knockout="Off" fill="#432821" d="M2964,1062.6c0,35-154,63.4-343.9,63.4c-189.9,0-343.9-28.4-343.9-63.4h-4
		c0,142.8,155.7,258.5,347.8,258.5c192.1,0,347.8-115.7,347.8-258.5H2964z"/>
	<polyline i:knockout="Off" fill="none" stroke="#432821" stroke-width="10" stroke-miterlimit="10" points="2277.7,1067.7 
		2610.7,511.8 2962.6,1067.7 	"/>
</g>
</svg>
